<?xml version="1.0" standalone="no"?>
<!DOCTYPE svg PUBLIC "-//W3C//DTD SVG 1.1//EN" "http://www.w3.org/Graphics/SVG/1.1/DTD/svg11.dtd" >
<svg xmlns="http://www.w3.org/2000/svg">
<metadata>Generated by IcoMoon</metadata>
<defs>
<font id="icomoon" horiz-adv-x="1024">
<font-face units-per-em="1024" ascent="960" descent="-64" />
<missing-glyph horiz-adv-x="1024" />
<glyph unicode="&#x20;" horiz-adv-x="512" d="" />
<glyph unicode="&#xe900;" glyph-name="add" d="M438.857 521.143h-438.857v-146.286h438.857v-438.857h146.286v438.857h438.857v146.286h-438.857v438.857h-146.286v-438.857z" />
<glyph unicode="&#xe901;" glyph-name="warn" d="M1000.847 459.577c0-276.376-224.047-500.424-500.424-500.424s-500.424 224.047-500.424 500.424c0 276.376 224.047 500.424 500.424 500.424s500.424-224.047 500.424-500.424z" />
<glyph unicode="&#xe902;" glyph-name="check_mark" d="M468.735 117.837c-47.871-47.871-125.372-47.871-173.12 0l-259.803 259.681c-47.749 47.749-47.749 125.372 0 173.12 47.871 47.871 125.372 47.871 173.12 0l173.243-173.12 432.801 432.801c47.871 47.871 125.372 47.871 173.12 0 47.871-47.749 47.871-125.249 0-173.12l-519.361-519.361z" />
<glyph unicode="&#xe903;" glyph-name="close" d="M510.63 562.213l-338.53 338.53-112.843-112.843 338.53-338.53-338.53-338.53 112.843-112.843 338.53 338.53 338.53-338.53 112.843 112.843-338.53 338.53 338.53 338.53-112.843 112.843-338.53-338.53z" />
<glyph unicode="&#xe904;" glyph-name="direction_left" d="M409.6 459.632c0 15.636 6.2 30.586 17.245 41.612l441.667 441.51c22.974 22.994 60.231 22.994 83.225 0s22.994-60.231 0-83.225l-400.055-399.898 400.055-399.898c22.994-22.994 22.994-60.231 0-83.225s-60.251-22.994-83.225 0l-441.667 441.51c-11.046 11.026-17.245 25.976-17.245 41.612zM0 459.632c0 15.636 6.2 30.586 17.245 41.612l441.667 441.51c22.974 22.994 60.231 22.994 83.225 0s22.994-60.231 0-83.225l-400.055-399.898 400.055-399.898c22.994-22.994 22.994-60.231 0-83.225s-60.251-22.994-83.225 0l-441.667 441.51c-11.046 11.026-17.245 25.976-17.245 41.612z" />
<glyph unicode="&#xe905;" glyph-name="direction_right" d="M984.859 459.632c0-15.637-6.2-30.586-17.245-41.612l-441.667-441.51c-22.974-22.994-60.231-22.994-83.225 0s-22.994 60.231 0 83.225l400.055 399.898-400.055 399.898c-22.994 22.994-22.994 60.231 0 83.225s60.251 22.994 83.225 0l441.667-441.51c11.046-11.026 17.245-25.976 17.245-41.612zM575.259 459.632c0-15.637-6.2-30.586-17.245-41.612l-441.667-441.51c-22.974-22.994-60.231-22.994-83.225 0s-22.994 60.231 0 83.225l400.055 399.898-400.055 399.898c-22.994 22.994-22.994 60.231 0 83.225s60.251 22.994 83.225 0l441.667-441.51c11.046-11.026 17.245-25.976 17.245-41.612z" />
<glyph unicode="&#xe906;" glyph-name="down" d="M867.328 773.145l-355.328-361.472-355.328 361.472-156.672-159.403 512-523.264 512 523.264z" />
<glyph unicode="&#xe907;" glyph-name="exclamation_mark" d="M438.857 960h146.286v-731.429h-146.286v731.429zM438.857 82.286h146.286v-146.286h-146.286v146.286z" />
<glyph unicode="&#xe908;" glyph-name="analyze" d="M449.28 591.36c-66.56 0-122.88-56.32-122.88-117.76 0-66.56 51.2-117.76 117.76-117.76s117.76 51.2 117.76 117.76c5.12 61.44-51.2 117.76-112.64 117.76zM449.28 401.92c-40.96 0-71.68 30.72-71.68 71.68 0 35.84 30.72 66.56 66.56 66.56s66.56-30.72 66.56-66.56c5.12-40.96-25.6-71.68-61.44-71.68zM449.28 698.88c-122.88 0-225.28-102.4-225.28-225.28s102.4-225.28 225.28-225.28c122.88 0 225.28 102.4 225.28 225.28s-102.4 225.28-225.28 225.28zM449.28 294.4c-97.28 0-179.2 81.92-179.2 179.2s76.8 179.2 179.2 179.2c97.28 0 179.2-81.92 179.2-179.2-5.12-102.4-81.92-179.2-179.2-179.2zM449.28 811.52c-189.44 0-337.92-153.6-337.92-337.92 0-189.44 153.6-337.92 337.92-337.92 189.44 0 337.92 153.6 337.92 337.92s-153.6 337.92-337.92 337.92zM449.28 181.76c-158.72 0-286.72 128-286.72 286.72s128 286.72 286.72 286.72c158.72 0 286.72-128 286.72-286.72s-128-286.72-286.72-286.72zM915.2 673.28c-138.24 102.4-317.44 220.16-491.52 261.12-168.96 46.080-312.32-25.6-373.76-174.080-66.56-168.96-35.84-537.6 15.36-650.24 81.92-184.32 225.28-179.2 348.16-148.48s424.96 204.8 537.6 348.16c102.4 133.12 92.16 271.36-35.84 363.52zM904.96 330.24c-102.4-122.88-384-286.72-491.52-317.44-107.52-25.6-230.4-30.72-307.2 128-46.080 102.4-66.56 440.32-10.24 588.8 51.2 133.12 179.2 194.56 332.8 158.72s327.68-148.48 450.56-240.64c107.52-81.92 117.76-204.8 25.6-317.44z" />
<glyph unicode="&#xe909;" glyph-name="articlelength" horiz-adv-x="1075" d="M330.99-56.508c-96.604 0.009-162.269 37.463-202.967 102.593-5.426 8.684-16.279 26.052-20.077 41.791-79.218 204.070-88.963 451.55-43.357 649.096 22.803 98.773 65.139 137.302 117.243 169.86 43.42 27.132 110.719 45.035 194.297 36.887 223.597-29.328 428.193-124.866 589.909-277.385 12.482-10.313 28.761-36.365 39.613-53.733 56.977-91.182 36.887-194.297-38.016-277.326s-163.916-162.8-263.783-225.204c-92.811-64.032-276.26-166.589-372.864-166.58zM206.251 867.754c-52.104-32.558-74.903-83.029-92.276-142.184-48.865-211.656-32.604-430.916 41.188-626.301 5.426-8.684 10.853-17.368 18.992-30.394v0c50.466-71.101 140.555-99.331 226.851-63.519 100.406 32.554 189.959 82.475 285.484 142.166 92.811 64.032 175.854 134.035 250.757 217.064 60.248 67.834 81.967 178.004 4.909 262.675-151.948 146.548-363.599 243.715-580.141 271.414-69.468 4.891-121.027-9.215-155.763-30.92zM414.72 524.8v0l-348.16 5.12v-35.84h312.32v-517.12h35.84v547.84zM527.36 637.44v0h-445.44v-35.84h409.6v-578.56h35.84v614.4zM640 750.080v0h-532.48v-35.84h496.64v-640h35.84v675.84z" />
<glyph unicode="&#xe90a;" glyph-name="content" d="M892.343 662.552c-131.657 97.524-302.324 209.676-468.114 248.686s-302.324-29.257-355.962-170.667c-63.39-160.914-39.010-507.124 9.752-619.276 78.019-175.543 214.552-170.667 331.581-141.41s404.724 195.048 512 331.581c102.4 131.657 92.648 263.314-29.257 351.086zM882.59 335.848c-97.524-117.029-365.714-273.067-468.114-302.324-102.4-24.381-219.429-29.257-292.571 121.905-43.886 97.524-68.267 419.352-9.752 560.762 48.762 126.781 170.667 185.295 316.952 151.162s312.076-141.41 429.105-229.181c102.4-78.019 112.152-195.048 24.381-302.324zM531.505 755.2h-336.457v-63.39h336.457v63.39zM195.048 628.419v-63.39h536.381v63.39h-536.381zM195.048 418.743h536.381v63.39h-536.381v-63.39zM195.048 282.21h536.381v63.39h-536.381v-63.39zM195.048 140.8h336.457v63.39h-336.457v-63.39z" />
<glyph unicode="&#xe90b;" glyph-name="degree" d="M892.343 672.305c-131.657 97.524-302.324 209.676-468.114 248.686s-302.324-29.257-355.962-170.667c-63.39-160.914-39.010-507.124 9.752-619.276 78.019-175.543 214.552-170.667 331.581-141.41s404.724 195.048 512 331.581c102.4 126.781 92.648 263.314-29.257 351.086zM882.59 340.724c-97.524-117.029-365.714-273.067-468.114-302.324-102.4-24.381-219.429-29.257-292.571 121.905-43.886 97.524-68.267 419.352-9.752 560.762 48.762 126.781 170.667 185.295 316.952 151.162s312.076-141.41 429.105-229.181c102.4-73.143 112.152-190.171 24.381-302.324zM721.676 682.057l-53.638-253.562-195.048 180.419zM614.4 511.39l-287.695-336.457-78.019 199.924-146.286-175.543-19.505 87.771 195.048 224.305 68.267-199.924 209.676 248.686z" />
<glyph unicode="&#xe90c;" glyph-name="knowledge_point" d="M904.96 673.28c-138.24 102.4-317.44 220.16-491.52 261.12s-317.44-30.72-373.76-179.2c-66.56-168.96-40.96-532.48 10.24-650.24 81.92-184.32 225.28-179.2 348.16-148.48s424.96 204.8 537.6 348.16c107.52 138.24 97.28 276.48-30.72 368.64zM894.72 330.24c-102.4-122.88-384-286.72-491.52-317.44-107.52-25.6-230.4-30.72-307.2 128-46.080 102.4-71.68 440.32-10.24 588.8 51.2 133.12 179.2 194.56 332.8 158.72s327.68-148.48 450.56-240.64c107.52-81.92 117.76-204.8 25.6-317.44zM318.436 723.342h261.12v-51.2h-261.12v51.2zM538.596 723.342h56.32v-568.32h-56.32v568.32zM318.436 201.102h261.12v-51.2h-261.12v51.2zM318.436 462.222h404.48v-51.2h-404.48v51.2zM354.276 702.862c0-50.899-41.261-92.16-92.16-92.16s-92.16 41.261-92.16 92.16c0 50.899 41.261 92.16 92.16 92.16s92.16-41.261 92.16-92.16zM354.276 441.742c0-50.899-41.261-92.16-92.16-92.16s-92.16 41.261-92.16 92.16c0 50.899 41.261 92.16 92.16 92.16s92.16-41.261 92.16-92.16zM354.276 185.742c0-50.899-41.261-92.16-92.16-92.16s-92.16 41.261-92.16 92.16c0 50.899 41.261 92.16 92.16 92.16s92.16-41.261 92.16-92.16zM835.556 441.742c0-50.899-41.261-92.16-92.16-92.16s-92.16 41.261-92.16 92.16c0 50.899 41.261 92.16 92.16 92.16s92.16-41.261 92.16-92.16z" />
<glyph unicode="&#xe90d;" glyph-name="sel" d="M724.1 673.345l-223.436 134.254c-6.207 3.729-11.174 2.491-14.904-3.716l-17.408-36.001c-4.968-1.239-2.491-11.174 2.477-9.936l37.239-22.376-100.677-146.467c-21.11 0.013-42.221 0.027-62.092-4.928-54.647-13.625-99.372-45.883-129.206-95.536-3.729-6.207-2.491-11.174 3.716-14.904l148.957-89.503-137.983-229.643c0 0 0 0 1.239-4.968l-4.995-43.459c1.239-4.968 1.239-4.968 2.477-9.936 0 0 6.207-3.729 6.207-3.729s0 0 4.968 1.239l36.027 24.813c0 0 4.968 1.239 4.968 1.239l136.744 234.61 148.957-89.503c0 0 6.207-3.729 6.207-3.729 4.968 1.239 4.968 1.239 3.729 6.207 18.646 31.033 29.848 70.763 29.874 112.983s-8.644 76.996-27.25 109.294l77.089 156.416 37.239-22.376c6.207-3.729 11.174-2.491 14.904 3.716l22.376 37.239c0 0-1.239 4.968-7.445 8.697v0zM904.96 673.28c-138.24 102.4-317.44 220.16-491.52 261.12-168.96 46.080-317.44-25.6-373.76-174.080-66.56-168.96-35.84-537.6 15.36-650.24 81.92-184.32 225.28-179.2 348.16-148.48s424.96 204.8 537.6 348.16c102.4 133.12 92.16 271.36-35.84 363.52zM894.72 330.24c-102.4-122.88-384-286.72-491.52-317.44-107.52-25.6-230.4-30.72-307.2 128-46.080 102.4-71.68 440.32-10.24 588.8 51.2 133.12 179.2 194.56 332.8 158.72s327.68-148.48 450.56-240.64c107.52-81.92 117.76-204.8 25.6-317.44z" />
<glyph unicode="&#xe90e;" glyph-name="articletype" horiz-adv-x="1075" d="M319.593-57.592c-71.096-2.164-150.872 38.547-191.57 103.677v0c-5.426 8.684-16.279 26.052-20.077 41.791-83.56 201.357-96.563 434.727-44.441 660.493 11.946 67.839 56.455 131.875 112.901 167.147s126.458 48.833 187.242 38.515c226.311-33.67 450.443-141.149 609.446-289.326 12.482-10.313 20.621-23.339 31.474-40.707 56.977-91.182 45.026-207.323-29.877-290.352s-163.916-162.8-263.783-225.204c-99.866-62.403-167.709-98.759-274.086-141.081-37.449-17.363-61.872-26.587-117.23-24.954zM326.739 906.819c-41.247-1.624-81.409-14.646-116.145-36.351-52.104-32.558-83.043-70.003-100.415-129.158-53.207-214.369-46.174-457.508 56.922-670.806 2.713-4.342 0 0 0 0 50.466-71.101 140.555-99.331 229.564-67.861 100.406 32.554 204.070 79.218 292.539 140.537 92.811 64.032 175.854 134.035 250.757 217.064 60.248 67.834 71.654 165.523 23.901 232.281-5.426 8.684-17.908 18.997-26.047 32.023-151.948 146.548-363.599 243.715-578.512 278.469-14.11 3.258-25.508 2.173-32.563 3.802zM716.8 207.36l-194.56 230.4-209.92-225.28v727.040c0 0 128 0 204.8-30.72 66.56-25.6 184.32-66.56 189.44-66.56l15.36-5.12-5.12-629.76zM363.52 903.68v-563.2l158.72 168.96 143.36-163.84v465.92c-30.72 15.36-102.4 40.96-148.48 56.32-71.68 20.48-107.52 30.72-153.6 35.84z" />
<glyph unicode="&#xe90f;" glyph-name="tab" d="M432.723 78.039c-9.91 0-19.819 0-33.032 6.606l-274.168 191.587c-6.606 3.303-9.91 13.213-13.213 23.123 0 9.91 3.303 19.819 6.606 26.426l297.29 376.568 290.684 46.245 39.639-284.077-284.077-373.265c-9.91-6.606-19.819-13.213-29.729-13.213v0zM436.026 675.923l-277.471-350.142c-3.303-3.303-3.303-6.606-3.303-13.213 0-3.303 3.303-6.606 6.606-9.91l257.652-181.677c6.606-6.606 19.819-3.303 23.123 3.303l267.561 346.839-33.032 237.832-241.135-33.032zM426.116 84.645c-9.91 0-19.819 0-29.729 6.606l-257.652 181.677c-6.606 3.303-9.91 13.213-13.213 23.123 0 9.91 3.303 19.819 6.606 26.426l112.31 135.432 317.11-224.619-109.006-135.432c-6.606-6.606-16.516-13.213-26.426-13.213v0zM234.529 418.271l-82.581-105.703c-3.303-3.303-3.303-6.606-3.303-13.213 0-3.303 3.303-6.606 6.606-9.91l257.652-181.677c6.606-6.606 19.819-3.303 23.123 3.303l82.581 105.703-284.077 201.497zM594.581 540.49c-33.032-3.303-62.761 16.516-69.368 46.245-3.303 33.032 16.516 59.458 49.548 62.761 33.032 6.606 66.065-16.516 69.368-42.942 6.606-33.032-19.819-62.761-49.548-66.065v0zM581.368 629.677c-19.819-3.303-29.729-16.516-29.729-36.335 3.303-16.516 19.819-29.729 36.335-26.426 19.819 3.303 29.729 16.516 29.729 36.335 0 16.516-16.516 29.729-36.335 26.426v0zM601.187 596.645c-16.516-16.516-33.032 3.303-26.426 16.516l138.735 168.465c3.303 3.303 16.516 9.91 23.123 0 3.303-3.303 3.303-9.91 0-19.819 0 0-132.129-161.858-135.432-165.161v0zM901.781 675.923c-132.129 99.097-313.806 214.71-482.271 254.348s-307.2-29.729-363.355-175.071c-62.761-165.161-36.335-525.213 16.516-637.523 82.581-178.374 221.316-175.071 340.232-138.735 115.613 33.032 416.206 208.103 528.516 343.535 95.794 125.523 85.884 260.955-39.639 353.445zM908.387 332.387c-95.794-115.613-393.084-290.684-498.787-323.716-105.703-29.729-231.226-42.942-307.2 125.523-46.245 105.703-79.277 449.239-19.819 601.187 46.245 132.129 175.071 194.89 333.626 158.555s333.626-145.342 455.845-234.529c118.916-79.277 138.735-211.406 36.335-327.019z" />
<glyph unicode="&#xe910;" glyph-name="question" d="M708.923 542.523c-7.877-23.631-31.508-47.262-63.015-78.769s-55.138-55.138-63.015-70.892c-7.877-15.754-15.754-31.508-23.631-47.262s-7.877-47.262-7.877-70.892h-86.646c0 39.385 0 63.015 7.877 86.646s15.754 39.385 23.631 55.138c7.877 15.754 31.508 39.385 63.015 70.892s47.262 55.138 55.138 70.892c7.877 15.754 15.754 39.385 15.754 63.015 0 31.508-7.877 55.138-31.508 78.769s-47.262 31.508-86.646 31.508c-86.646 0-126.031-55.138-126.031-157.538h-86.646c0 47.262 7.877 78.769 15.754 110.277s23.631 47.262 47.262 63.015c23.631 15.754 47.262 31.508 70.892 39.385s55.138 15.754 86.646 15.754c63.015 0 110.277-15.754 149.662-55.138 39.385-31.508 55.138-78.769 55.138-141.785 0-15.754-7.877-39.385-15.754-63.015zM512 93.538c-31.508 0-55.138 23.631-55.138 55.138s23.631 55.138 55.138 55.138c31.508 0 55.138-23.631 55.138-55.138s-31.508-55.138-55.138-55.138z" />
<glyph unicode="&#xe911;" glyph-name="subtraction" d="M0 521.143h1024v-146.286h-1024v146.286z" />
<glyph unicode="&#xe912;" glyph-name="up" d="M512 773.162l-512-523.435 156.843-159.232 355.157 361.472 355.328-361.472 156.843 159.232z" />
<glyph unicode="&#xe913;" glyph-name="match" horiz-adv-x="1075" d="M340.758-62.478c-82.494-3.249-150.872 38.547-198.625 105.306-74.885 110.179-131.295 461.323-57.462 700.656 24.972 75.978 59.168 127.533 115.614 162.805s123.745 53.175 184.528 42.857c226.311-33.67 436.333-137.892 598.049-290.411 12.482-10.313 33.103-33.652 43.955-51.020 56.977-91.182 37.971-205.694-36.932-288.723s-166.63-158.458-266.496-220.862c-99.866-62.403-199.188-106.354-308.278-144.334-21.71-13.566-51.56-14.106-74.354-16.275zM233.388 872.636c-52.104-32.558-90.642-86.827-108.015-145.981-53.207-214.369-23.929-522.093 42.272-637.699s154.121-121.041 238.788-92.285c100.406 32.554 199.728 76.505 295.252 136.195 92.811 64.032 178.567 129.693 253.47 212.722 60.248 67.834 86.309 180.717 6.538 269.731-151.948 146.548-353.286 256.197-568.199 290.951-39.618 5.431-103.659 1.638-160.105-33.634zM317.44 197.12c-112.64-10.24-209.92 66.56-250.88 209.92l20.48 261.12c0 0 25.6-384 230.4-368.64 56.32 5.12 97.28 66.56 122.88 117.76 40.96 81.92 66.56 174.080 168.96 215.040 76.8 30.72 163.84 35.84 235.52-5.12 87.040-46.080 153.6-128 179.2-230.4l-76.8-97.28c-10.24 92.16-61.44 189.44-133.12 230.4-35.84 20.48-102.4 35.84-163.84 5.12s-76.8-87.040-107.52-158.72c-56.32-112.64-112.64-168.96-225.28-179.2z" />
<glyph unicode="&#xe914;" glyph-name="valid" d="M512-64c-122.628 0-235.188 43.111-323.349 115.004-115.13 93.885-188.651 236.855-188.651 396.996 0 282.77 229.23 512 512 512s512-229.23 512-512c0-282.77-229.23-512-512-512zM512 33.524c228.909 0 414.476 185.567 414.476 414.476s-185.567 414.476-414.476 414.476c-228.909 0-414.476-185.567-414.476-414.476s185.567-414.476 414.476-414.476zM709.141 642.749l-292.463-297.366-153.018 152.448c-13.454 13.402-35.314 13.402-48.769 0s-13.455-35.175 0-48.577l173.217-172.536c1.163-1.653 1.871-3.551 3.354-5.029 6.957-6.93 16.103-10.131 25.215-9.885 9.11-0.212 18.291 2.955 25.247 9.885 1.484 1.477 2.19 3.375 3.355 5.029l312.628 317.453c13.456 13.402 13.456 35.175 0 48.577-13.489 13.403-35.311 13.403-48.767 0.001z" />
<glyph unicode="&#xe915;" glyph-name="source" d="M897.761 662.584c-132.287 97.991-303.77 210.679-470.354 249.875s-303.77-29.397-357.664-171.483c-63.694-161.685-39.196-509.55 9.799-622.239 78.392-176.383 215.578-171.483 333.168-142.086s406.66 195.981 514.45 333.168c102.89 132.287 93.091 264.574-29.397 352.765zM887.961 334.315c-97.991-117.588-372.364-284.172-475.254-313.569-102.89-24.498-220.478-29.397-293.972 122.489-44.095 97.991-63.694 431.158-4.899 573.244 48.995 127.388 171.483 186.181 318.468 151.885s313.569-142.086 431.158-230.278c102.89-78.392 112.689-195.981 24.498-303.77zM471.502 736.076l-338.067-137.187 333.168-137.187 333.168 137.187-328.268 137.187zM216.728 603.789l254.774 97.991 244.976-97.991-249.875-102.89-249.875 102.89zM633.187 535.196l-44.095-19.599 127.388-48.995-249.875-102.89-249.875 102.89 127.388 48.995-44.095 19.599-171.483-68.593 338.067-137.187 333.168 137.187zM633.187 407.808l-44.095-14.698 127.388-53.895-249.875-102.89-249.875 102.89 127.388 53.895-44.095 14.698-171.483-68.593 338.067-137.187 333.168 137.187z" />
<glyph unicode="&#xe916;" glyph-name="zoom" d="M973.701 33.764l-229.389 216.431c57.273 71.6 91.527 162.452 91.527 261.312 0 231.059-187.109 418.375-417.919 418.375s-417.92-187.317-417.92-418.375c0-231.059 187.109-418.376 417.92-418.376 102.208 0 195.846 36.733 268.462 97.729l230.484-217.465c12.108-11.424 32.779-9.146 46.17 5.080l8.339 8.858c13.39 14.222 14.432 35.011 2.326 46.432zM78.483 511.507c0 187.669 151.972 339.807 339.437 339.807s339.437-152.138 339.437-339.807c0-187.67-151.971-339.808-339.437-339.808s-339.437 152.137-339.437 339.808z" />
<glyph unicode="&#xe917;" glyph-name="answer" d="M151.68 483.84c0-97.28 51.2-184.32 138.24-235.52v-25.6c-15.36-10.24-20.48-25.6-20.48-46.080 0-15.36 5.12-25.6 10.24-35.84-5.12-10.24-10.24-20.48-10.24-35.84 0-30.72 25.6-56.32 56.32-56.32h204.8c30.72 0 56.32 25.6 56.32 56.32 0 15.36-5.12 25.6-10.24 35.84 5.12 10.24 10.24 20.48 10.24 35.84 0 20.48-10.24 35.84-20.48 46.080v25.6c87.040 46.080 138.24 138.24 138.24 235.52 0 148.48-122.88 271.36-276.48 271.36s-276.48-117.76-276.48-271.36zM530.56 99.84h-204.8c-5.12 0-10.24 5.12-10.24 10.24s5.12 10.24 10.24 10.24h204.8c5.12 0 10.24-5.12 10.24-10.24s-5.12-10.24-10.24-10.24v0 0zM530.56 166.4h-204.8c-5.12 0-10.24 5.12-10.24 10.24s5.12 10.24 10.24 10.24h204.8c5.12 0 10.24-5.12 10.24-10.24s-5.12-10.24-10.24-10.24v0 0zM530.56 284.16l-10.24-5.12v-40.96h-66.56v158.72c40.96 10.24 66.56 46.080 66.56 87.040 0 51.2-40.96 92.16-92.16 92.16s-92.16-40.96-92.16-92.16c0-40.96 30.72-76.8 66.56-87.040v-163.84h-66.56v40.96l-10.24 5.12c-76.8 40.96-122.88 117.76-122.88 199.68 0 122.88 102.4 225.28 230.4 225.28s230.4-102.4 230.4-225.28c-5.12-76.8-56.32-153.6-133.12-194.56v0 0zM428.16 442.88c-25.6 0-46.080 20.48-46.080 46.080s20.48 46.080 46.080 46.080 46.080-20.48 46.080-46.080c0-25.6-20.48-46.080-46.080-46.080v0zM904.32 673.28c-138.24 102.4-317.44 220.16-491.52 261.12-174.080 46.080-317.44-25.6-373.76-174.080-66.56-168.96-40.96-537.6 15.36-650.24 81.92-184.32 225.28-179.2 348.16-148.48 117.76 30.72 424.96 204.8 537.6 348.16 102.4 133.12 92.16 271.36-35.84 363.52zM894.080 330.24c-102.4-122.88-384-286.72-491.52-317.44-107.52-25.6-230.4-30.72-307.2 128-46.080 102.4-71.68 440.32-10.24 588.8 51.2 133.12 179.2 194.56 332.8 158.72s327.68-148.48 450.56-240.64c107.52-81.92 117.76-204.8 25.6-317.44z" />
<glyph unicode="&#xe918;" glyph-name="add__answersheet" d="M511.657 899.024c-215.686 0-391.163-175.306-391.163-390.782s175.478-390.781 391.163-390.781c215.685 0 391.163 175.306 391.163 390.782s-175.477 390.781-391.163 390.781zM511.657 156.472c-194.147 0-352.114 157.813-352.114 351.771s157.966 351.77 352.114 351.77c194.147 0 352.114-157.812 352.114-351.77s-157.966-351.771-352.114-351.771zM727.509 537.612h-409.119c-9.509 0-17.19-7.675-17.19-17.173s7.682-17.173 17.19-17.173h409.119c9.509 0 17.19 7.675 17.19 17.173s-7.681 17.173-17.19 17.173zM516.252 283.43v409.119c0 9.509-7.675 17.19-17.173 17.19s-17.173-7.682-17.173-17.19v-409.119c0-9.509 7.675-17.19 17.173-17.19s17.173 7.681 17.173 17.19z" />
<glyph unicode="&#xe919;" glyph-name="add_b" d="M438.857 521.143h-438.857v-146.286h438.857v-438.857h146.286v438.857h438.857v146.286h-438.857v438.857h-146.286v-438.857z" />
<glyph unicode="&#xe91a;" glyph-name="answer_sheet" horiz-adv-x="910" d="M479.649 359.546l-37.783-0.033c-10.438 0-18.861-6.487-18.861-14.462l0.031-28.859c0-7.976 8.454-14.429 18.892-14.396l37.783 0.033c10.438 0 18.861 6.487 18.861 14.462l-0.031 28.859c-0.031 7.943-8.484 14.396-18.892 14.396v0zM441.621 422.625l37.753 0.033c10.438 0 18.861 6.487 18.861 14.462l-0.031 28.859c0 7.976-8.454 14.429-18.892 14.396l-37.753-0.033c-10.438 0-18.892-6.487-18.861-14.462l0.031-28.859c0-7.976 8.454-14.396 18.892-14.396v0zM297.203 422.46l37.753 0.033c10.438 0 18.861 6.487 18.861 14.462l-0.031 28.859c0 7.976-8.454 14.429-18.892 14.396l-37.753-0.033c-10.438 0-18.861-6.487-18.861-14.462l0.031-28.859c0-7.976 8.454-14.429 18.892-14.396v0zM152.784 419.845l37.753 0.033c10.438 0 18.861 6.487 18.861 14.462l-0.031 28.859c0 7.976-8.484 14.429-18.892 14.396l-37.753-0.033c-10.438 0-18.892-6.487-18.861-14.462l0.031-28.859c0-7.943 8.454-14.396 18.892-14.396v0zM335.413 359.348l-37.753-0.033c-10.438 0-18.861-6.487-18.861-14.462l0.031-28.859c0-7.976 8.454-14.429 18.892-14.396l37.753 0.033c10.438 0 18.861 6.487 18.861 14.462l-0.031 28.859c0 7.976-8.454 14.396-18.892 14.396v0zM335.169 602.033l-37.753-0.033c-10.438 0-18.861-6.487-18.861-14.462l0.031-28.859c0-7.976 8.454-14.429 18.892-14.396l37.753 0.033c10.438 0 18.861 6.487 18.861 14.462l-0.031 28.859c-0.031 7.943-8.484 14.396-18.892 14.396v0zM710.926 786.702l-645.794-0.827c-35.799-0.033-65.068-32.632-65.007-72.412l0.488-443.372 0.244-226.435c0.031-39.78 29.36-72.312 65.159-72.279l645.794 0.827c35.799 0.033 65.068 32.632 65.007 72.445l-0.702 669.774c-0.061 39.813-29.39 72.312-65.19 72.279v0zM739.309 46.932c0.031-17.971-8.607-31.142-20.814-31.275l-659.284-0.827c-10.041 0.629-20.875 14.959-20.875 31.242l-0.824 681.39 0.122-11.98c0 8.174 8.057 23.133 20.814 23.199l659.284 0.827c12.666-0.033 20.875-13.172 20.875-31.242l0.702-661.335zM623.732 480.574l-37.753-0.033c-10.438 0-18.861-6.487-18.861-14.462l0.031-28.859c0-7.976 8.454-14.429 18.892-14.396l37.753 0.033c10.438 0 18.861 6.487 18.861 14.462l-0.031 28.859c-0.031 7.976-8.484 14.396-18.892 14.396v0zM479.374 602.231l-37.783-0.033c-10.438 0-18.861-6.487-18.861-14.462l0.031-28.859c0-7.976 8.454-14.429 18.892-14.396l37.783 0.033c10.438 0 18.861 6.487 18.861 14.462l-0.031 28.859c0 7.943-8.454 14.396-18.892 14.396v0zM623.579 602.397l-37.753-0.033c-10.438 0-18.861-6.487-18.861-14.462l0.031-28.859c0-7.976 8.454-14.429 18.892-14.396l37.753 0.033c10.438 0 18.861 6.487 18.861 14.462l-0.031 28.859c0 7.943-8.454 14.396-18.892 14.396v0zM191.208 358.918l-37.753-0.033c-10.438 0-18.861-6.487-18.861-14.462l0.031-28.859c0-7.976 8.454-14.429 18.892-14.396l37.753 0.033c10.438 0 18.861 6.487 18.861 14.462l-0.031 28.859c0 7.943-8.484 14.396-18.892 14.396v0zM153.242 544.083l37.753 0.033c10.438 0 18.861 6.487 18.861 14.462l-0.031 28.859c0 7.976-8.454 14.429-18.892 14.396l-37.753-0.033c-10.438 0-18.861-6.487-18.861-14.462l0.031-28.859c0-7.976 8.454-14.396 18.892-14.396v0zM623.854 359.712l-37.753-0.033c-10.438 0-18.861-6.487-18.861-14.462l0.031-28.859c0-7.976 8.454-14.429 18.892-14.396l37.753 0.033c10.438 0 18.861 6.487 18.861 14.462l-0.031 28.859c0 7.976-8.454 14.396-18.892 14.396v0zM844.205 959.656l-645.794-0.794c-35.799-0.066-65.068-32.665-65.007-72.445l0.092-74.596 37.417-0.563-0.153 89.158 0.122-11.98c0 8.174 8.057 23.133 20.814 23.199l659.284 0.827c12.666-0.033 20.875-13.172 20.875-31.242l0.702-661.302c0.031-17.971-8.576-31.142-20.814-31.308l-43.887-0.066 0.061-43.454 37.173 0.033c35.799 0.033 65.068 32.632 65.007 72.445l-0.702 669.84c-0.061 39.78-29.39 72.312-65.19 72.246v0z" />
<glyph unicode="&#xe91b;" glyph-name="copy" d="M192 320h448v-64h-448v64zM192 448h448v-64h-448v64zM192 192h256v-64h-256v64zM896 960h-576c-70.4 0-128-57.6-128-128h64c0 38.4 25.6 64 64 64h576c38.4 0 64-25.6 64-64v-576c0-38.4-25.6-64-64-64v-64c70.4 0 128 57.6 128 128v576c0 70.4-57.6 128-128 128zM192 576h448v-64h-448v64zM704 768h-576c-70.4 0-128-57.6-128-128v-576c0-70.4 57.6-128 128-128h576c70.4 0 128 57.6 128 128v576c0 70.4-57.6 128-128 128zM768 64c0-38.4-25.6-64-64-64h-576c-38.4 0-64 25.6-64 64v576c0 38.4 25.6 64 64 64h576c38.4 0 64-25.6 64-64v-576z" />
<glyph unicode="&#xe91c;" glyph-name="delete" horiz-adv-x="956" d="M568.557 155.429c-18.495 0-33.445 16.347-33.445 36.571v402.286c0 20.224 14.95 36.571 33.445 36.571s33.445-16.347 33.445-36.571v-402.286c0-20.224-14.95-36.571-33.445-36.571zM367.89 155.429c-18.495 0-33.445 16.347-33.445 36.571v402.286c0 20.224 14.95 36.571 33.445 36.571s33.445-16.347 33.445-36.571v-402.286c0-20.224-14.95-36.571-33.445-36.571zM903.003 777.143h-167.223v73.143c0 60.489-44.648 109.714-99.564 109.714h-335.215c-55.317 0-100.334-49.225-100.334-109.714v-73.143h-167.223c-18.495 0-33.445-16.347-33.445-36.571s14.95-36.571 33.445-36.571h869.558c18.495 0 33.445 16.347 33.445 36.571s-14.95 36.571-33.445 36.571zM267.556 850.286c0 20.151 15.017 36.571 33.445 36.571h335.215c18.328 0 32.675-16.055 32.675-36.571v-73.143h-401.335v73.143zM702.469-64h-468.291c-55.317 0-100.334 49.225-100.334 109.714v549.12c0 20.187 14.983 36.571 33.445 36.571s33.445-16.384 33.445-36.571v-549.12c0-20.187 15.017-36.571 33.445-36.571h468.291c18.461 0 33.445 16.384 33.445 36.571v547.621c0 20.187 14.95 36.571 33.445 36.571s33.445-16.384 33.445-36.571v-547.621c0-60.489-45.016-109.714-100.334-109.714z" />
<glyph unicode="&#xe91d;" glyph-name="download" d="M548.571 75.999v445.144h-73.143v-445.144l-102.142 102.144-51.716-51.714 190.429-190.429 190.429 190.429-51.716 51.714-102.142-102.144zM802.178 703.214c-17.679 144.644-140.749 256.786-290.178 256.786s-272.499-112.143-290.178-256.786c-123.822-8.214-221.822-111-221.822-236.928 0-131.286 106.428-237.714 237.714-237.714h128v73.143h-128c-90.75 0-164.571 73.821-164.571 164.571 0 86.213 67.429 158.25 153.536 163.928l60.392 4.036 7.356 60.107c13.429 109.751 106.929 192.501 217.573 192.501s204.144-82.75 217.571-192.499l7.356-60.107 60.392-4.036c86.109-5.68 153.538-77.716 153.538-163.93 0-90.75-73.821-164.571-164.571-164.571h-128v-73.143h128c131.286 0 237.714 106.428 237.714 237.714 0 125.928-98 228.714-221.822 236.928z" />
<glyph unicode="&#xe91e;" glyph-name="edit_answersheet" d="M512 867.137c95.211 0.127 186.545-37.708 253.776-105.126 67.418-67.231 105.252-158.565 105.126-253.776 0.123-95.211-37.711-186.543-105.126-253.776-67.233-67.415-158.566-105.249-253.776-105.126-95.211-0.127-186.545 37.708-253.776 105.126-67.415 67.233-105.249 158.566-105.126 253.776-0.127 95.211 37.708 186.545 105.126 253.776 67.233 67.415 158.566 105.249 253.776 105.126v0zM512 899.765c-216.222 0-391.529-175.307-391.529-391.529s175.307-391.529 391.529-391.529c216.222 0 391.529 175.307 391.529 391.529s-175.307 391.529-391.529 391.529zM588.348 671.242l80.198-80.296-217.462-215.798-80.264 80.264 217.527 215.831zM684.828 608.075l-80.59 80.59c0.424 0.489 1.109 1.305 1.86 2.023l36.543 36.543c15.204 15.139 35.564 15.139 50.768 0l29.365-29.365c15.27-15.335 15.302-35.694 0.065-50.964-12.072-12.040-24.112-24.046-36.119-36.119-0.816-0.816-1.338-1.958-1.892-2.741v0.033zM306.121 309.763l48.060 128.389 79.024-78.958-126.497-50.051-0.587 0.653v-0.033z" />
<glyph unicode="&#xe91f;" glyph-name="edit" horiz-adv-x="884" d="M803.142 711.15c-17.826 0-35.652-19.19-35.652-38.379v-604.475c0-19.19-8.913-38.379-35.651-38.379h-623.907c-17.826 0-35.652 19.19-35.652 38.379v757.992c0 19.19 17.826 38.379 35.652 38.379h490.213c17.826 0 35.651 9.595 35.651 28.785 0 28.785-17.826 38.379-35.651 38.379h-490.213c-62.391 0-106.955-47.974-106.955-105.543v-757.992c0-57.569 44.564-115.138 106.955-115.138h623.907c62.39 0 106.955 57.569 106.955 115.138v604.475c0 19.19-17.826 38.379-35.652 38.379zM786.955 926.444l-254.131-270.984c-13.153-14.367-19.71-43.54 0-54.142 9.233-13.528 32.091-19.517 56.88 10.602l248.017 264.562c7.608 17.841 17.159 36.182 0 49.961s-44.19 7.183-50.767 0zM410.621 634.392h-219.112c-28.58 0-38.107-19.19-38.107-38.379s9.527-38.379 38.107-38.379h219.112c19.053 0 38.106 19.19 38.106 38.379s-19.053 38.379-38.106 38.379v0zM140.612 418.862c0-28.785 9.526-38.379 38.106-38.379h447.751c19.053 0 38.106 9.595 38.106 38.379 0 19.19-19.053 28.785-38.106 28.785h-447.751c-28.58 0-38.106-9.595-38.106-28.785zM140.612 186.134c0-28.785 9.526-38.379 38.106-38.379h447.751c19.053 0 38.106 9.595 38.106 38.379 0 19.19-19.053 28.785-38.106 28.785h-447.751c-28.58 0-38.106-9.595-38.106-28.785z" />
<glyph unicode="&#xe920;" glyph-name="exam_p_icon" horiz-adv-x="973" d="M778.634 697.843h-469.2c-15.624 0-28.28-12.936-28.28-28.907s12.656-28.907 28.28-28.907h469.2c15.624 0 28.28 12.936 28.28 28.907s-12.656 28.907-28.28 28.907v0zM754.26 466.43c0 15.971-12.656 28.907-28.28 28.907h-416.546c-15.624 0-28.28-12.936-28.28-28.907s12.656-28.907 28.28-28.907h416.546c15.624 0 28.28 12.936 28.28 28.907v0zM309.435 292.51c-15.624 0-28.28-12.936-28.28-28.907s12.656-28.907 28.28-28.907h277.645c15.624 0 28.28 12.936 28.28 28.907s-12.656 28.907-28.28 28.907h-277.645zM599.267-5.5h-524.51c-13.437 0-17.187 3.833-17.187 17.568v872.472c0 13.735 3.75 17.568 17.187 17.568h797.468c13.437 0 17.187-3.833 17.187-17.568v-456.918h0.156c0.625-15.332 12.968-27.629 28.28-27.629s27.499 12.297 28.28 27.629h0.156v503.232c0 15.971-12.656 28.907-28.28 28.907h-888.87c-15.624 0-28.28-12.936-28.28-28.907v-965.261c0-15.971 12.656-28.907 28.28-28.907h569.352l0.781 57.813zM308.653-5.5c-15.624 0-28.28-12.936-28.28-28.907s12.656-28.907 28.28-28.907h277.645c15.624 0 28.28 12.936 28.28 28.907s-12.656 28.907-28.28 28.907h-277.645zM146.941 668.937c0-14.835 7.743-28.543 20.312-35.96s28.054-7.417 40.623 0c12.569 7.417 20.312 21.125 20.312 35.96s-7.743 28.543-20.312 35.96c-12.569 7.417-28.054 7.417-40.623 0s-20.312-21.125-20.312-35.96v0zM152.41 464.513c0-14.835 7.743-28.543 20.312-35.96s28.054-7.417 40.623 0c12.569 7.417 20.312 21.125 20.312 35.96 0 22.933-18.188 41.523-40.623 41.523s-40.623-18.591-40.623-41.523v0zM152.41 262.486c0-14.835 7.743-28.543 20.312-35.96s28.054-7.417 40.623 0c12.569 7.417 20.312 21.125 20.312 35.96 0 22.933-18.188 41.523-40.623 41.523s-40.623-18.591-40.623-41.523v0zM626.453 168.739l89.684-73.145 223.428 210.492c0 0 14.999 14.054 28.124 3.034 3.906-3.194 8.437-12.617-1.719-27.15l-233.272-279.325c0 0-17.812-25.074-39.061 0.319l-100.777 138.944c0 0-11.875 18.845 2.969 30.025 5.156 3.833 16.562 9.742 30.624-3.194v0z" />
<glyph unicode="&#xe921;" glyph-name="invalid" d="M1024 448c0 282.818-229.183 512-512.011 512-282.624 0-511.989-229.182-511.989-512 0-282.624 229.387-512 512.023-512 282.795 0.011 511.977 229.376 511.977 512zM82.204 448c-0.14 166.558 95.999 318.19 246.705 389.107s328.821 48.341 457.068-57.934l-605.104-605.059c-63.885 76.957-98.785 173.867-98.634 273.886h-0.034zM239.104 116.042l604.922 604.877c140.629-170.826 128.558-420.522-27.91-576.978-156.479-156.467-406.187-168.539-577.013-27.898v0z" />
<glyph unicode="&#xe922;" glyph-name="lead_in" d="M0 448c0-282.778 229.222-512 512-512s512 229.222 512 512c0 282.778-229.222 512-512 512s-512-229.222-512-512zM57.127 448c0 251.216 203.657 454.873 454.873 454.873s454.873-203.657 454.873-454.873c0-251.23-203.657-454.873-454.873-454.873s-454.873 203.643-454.873 454.873zM511.6 749.145c-35.504 0-64.268-28.763-64.268-64.268v-319.911l-38.789 38.789c-25.122 25.122-65.625 25.336-90.46 0.486-24.85-24.836-24.636-65.339 0.486-90.46l148.044-148.044c12.382-12.382 28.649-18.538 44.959-18.495 16.338-0.057 32.619 6.113 45.016 18.495l0.486 0.5 147.545 147.545c25.122 25.122 25.336 65.625 0.5 90.46-24.85 24.85-65.353 24.636-90.475-0.486l-38.775-38.789v319.911c0 35.504-28.778 64.268-64.268 64.268z" />
<glyph unicode="&#xe923;" glyph-name="opt" d="M1024 905.037h-103.277c-44.504-32.226-86.349-66.519-125.048-100.878v0c-0.24-0.263-0.603-0.558-0.844-0.82-162.052-144.385-266.18-289.983-266.18-289.983l-180.554 111.896-51.64-55.931c0 0 154.797-196.284 232.194-335.719 57.082 108.159 147.784 250.543 247.675 384.863v0c20.316 27.409 40.877 54.194 61.918 80.519v0c61.92 77.832 125.532 150.056 185.756 206.052zM844.876 135.445c0-50.505-37.953-91.617-84.49-91.617h-591.411c-46.533 0-84.489 41.112-84.489 91.617v641.321c0 50.506 37.956 91.617 84.489 91.617h464.682c28.55 29.657 59.078 60.3 92.080 91.617h-556.762c-93.397 0-168.975-82.045-168.975-183.233v-641.32c0-101.19 75.578-183.233 168.975-183.233h591.411c93.238 0 168.976 82.044 168.976 183.232v420.015c-28.874-39.321-57.092-78.822-84.486-118.677v-301.337z" />
<glyph unicode="&#xe924;" glyph-name="paper_icon" horiz-adv-x="878" d="M665.362 667.358h-483.919c-11.123 0-20.206 10.857-20.206 24.428s8.98 24.428 20.206 24.428h483.919c11.123 0 20.206-10.857 20.206-24.428s-9.082-24.428-20.206-24.428zM423.403 155.358h-241.959c-11.123 0-20.206 10.857-20.206 24.428 0 13.448 8.98 24.428 20.206 24.428h241.959c11.123 0 20.206-10.857 20.206-24.428 0-13.448-9.082-24.428-20.206-24.428zM423.403 447.93h-241.959c-11.123 0-20.206 10.857-20.206 24.428 0 13.448 8.98 24.428 20.206 24.428h241.959c11.123 0 20.206-10.857 20.206-24.428 0-13.448-9.082-24.428-20.206-24.428zM786.393-64h-725.878c-33.37 0-60.515 32.817-60.515 73.16v877.556c0 40.343 27.145 73.16 60.515 73.16h725.878c33.37 0 60.515-32.817 60.515-73.16v-877.556c-0.102-40.343-27.145-73.16-60.515-73.16v0zM60.515 911.021c-11.123 0-20.206-10.98-20.206-24.428v-877.556c0-13.448 9.082-24.428 20.206-24.428h725.878c11.123 0 20.206 10.98 20.206 24.428v877.679c0 13.448-9.082 24.428-20.206 24.428l-725.878-0.123z" />
<glyph unicode="&#xe925;" glyph-name="pdf" horiz-adv-x="931" d="M889.248 658.556v4.124c-1.332 5.184-4.062 9.942-7.918 13.794l-288.145 275.872c-4.027 3.699-8.997 6.317-14.412 7.594h-482.615c-25.213 0.235-49.487-9.164-67.463-26.122s-28.176-40.080-28.348-64.262v-842.518c0-24.167 10.022-47.341 27.856-64.414s42.016-26.641 67.214-26.596h699.473c25.198-0.045 49.38 9.523 67.214 26.596s27.856 40.247 27.856 64.414v628.077c-0.18 1.157-0.418 2.306-0.712 3.441zM781.902 684.75h-179.346v172.349l179.346-172.349zM794.89-4.702h-698.731c-8.397-0.015-16.455 3.171-22.401 8.858s-9.291 13.406-9.299 21.46v843.94c0.008 8.053 3.353 15.773 9.299 21.46s14.004 8.873 22.401 8.858h442.997v-244.729c0.008-8.056 3.352-15.779 9.297-21.47s14.003-8.884 22.403-8.876h256.446v-597.76c-0.014-8.173-3.458-15.997-9.556-21.706s-14.336-8.823-22.855-8.64v-1.394zM256.052 428.957h-82.111v-226.84h50.411v78.723h26.688c24.134-1.512 48 5.578 67.017 19.908 17.537 13.574 27.418 34.254 26.688 55.857-0.474 48.254-30.010 72.381-88.605 72.381l-0.089-0.028zM246.711 318.040h-21.618v73.092h22.329c11.177 2.269 22.816-0.616 31.448-7.793s13.258-17.82 12.499-28.752c0.654-11.034-4.109-21.726-12.875-28.9s-20.525-10.002-31.783-7.646v0zM462.086 428.957h-82.171v-226.84h82.111c33.654-1.335 66.507 10.064 91.482 31.739 23.977 21.812 37.079 52.42 36 84.098 0 73.547-42.504 110.519-127.511 110.917l0.089 0.085zM517.539 261.415c-14.864-14.599-35.687-22.165-56.906-20.676h-29.654v148.174h27.37c21.509 1.771 42.841-4.946 59.070-18.6 14.852-13.882 22.732-33.237 21.618-53.098 0.882-20.644-6.905-40.765-21.618-55.857l0.119 0.057zM628.473 201.434h50.411v89.644h78.493v39.305h-78.493v58.53h84.988v39.305h-135.429v-226.84l0.030 0.057z" />
<glyph unicode="&#xe926;" glyph-name="print" d="M349.322 76.165h325.356c13.944 0 23.24 9.296 23.24 23.24s-9.296 23.24-23.24 23.24h-325.356c-13.944 0-23.24-9.296-23.24-23.24s9.296-23.24 23.24-23.24zM349.322 169.123h232.397c13.944 0 23.24 9.296 23.24 23.24s-9.296 23.24-23.24 23.24h-232.397c-13.944 0-23.24-9.296-23.24-23.24s9.296-23.24 23.24-23.24zM883.835 680.397h-46.479v232.397c0 25.564-20.916 46.479-46.479 46.479h-557.753c-25.564 0-46.479-20.916-46.479-46.479v-232.397h-46.479c-76.691 0-139.438-62.747-139.438-139.438v-371.835c0-76.691 62.747-139.438 139.438-139.438h46.479v-46.479c0-25.564 20.916-46.479 46.479-46.479h557.753c25.564 0 46.479 20.916 46.479 46.479v46.479h46.479c76.691 0 139.438 62.747 139.438 139.438v371.835c0 76.691-62.747 139.438-139.438 139.438zM233.123 912.794h557.753v-232.397h-557.753v232.397zM790.877 29.685v-46.479h-557.753v278.877h557.753v-232.397zM976.794 169.123c0-51.127-41.831-92.959-92.959-92.959h-46.479v185.918c0 25.564-20.916 46.479-46.479 46.479h-557.753c-25.564 0-46.479-20.916-46.479-46.479v-185.918h-46.479c-51.127 0-92.959 41.831-92.959 92.959v371.835c0 51.127 41.831 92.959 92.959 92.959h743.671c51.127 0 92.959-41.831 92.959-92.959v-371.835zM837.356 540.959c-25.564 0-46.479-20.916-46.479-46.479s20.916-46.479 46.479-46.479c25.564 0 46.479 20.916 46.479 46.479s-20.916 46.479-46.479 46.479zM697.918 540.959c-25.564 0-46.479-20.916-46.479-46.479s20.916-46.479 46.479-46.479c25.564 0 46.479 20.916 46.479 46.479s-20.916 46.479-46.479 46.479z" />
<glyph unicode="&#xe927;" glyph-name="publish" horiz-adv-x="1536" d="M1511.182 926.826v5.753l-1.193 1.151v4.41l-1.193 1.151v1.534h-2.585l-1.193 1.918v1.151l-3.579 3.452v1.151l-0.994 1.151v2.301h-3.579l-1.193 1.151h-2.386l-1.988 1.151v2.301h-1.193l-1.392 1.151h-1.193v1.151h-4.772v1.151h-9.344l-1.988-1.151v-1.151h-2.386l-1.193-1.151h-2.386l-1441.435-516.601c-9.143-3.11-16.599-9.646-20.678-18.129s-4.437-18.194-0.993-26.935c4.218-9.409 12.165-16.798 22.069-20.518l429.846-169.899 42.945-239.7c3.52-18.057 20.818-30.486 39.764-28.572 7.833 1.188 14.923 5.154 19.882 11.122l161.043 153.408 324.273-128.287c18.125-7.082 38.826 0.753 47.12 17.834l417.519 919.105 1.193 1.151v11.122l3.181 5.178zM481.898 269.665l-346.74 136.533 1107.817 398.093-761.078-534.626zM555.262 43.58l-22.467 131.547 113.525-45.064-91.258-86.484h0.199zM1039.385 48.757l-480.147 189.842 830.863 582.758-350.915-772.409 0.199-0.192z" />
<glyph unicode="&#xe928;" glyph-name="reduce__answersheet" d="M511.657 899.024c-215.686 0-391.163-175.306-391.163-390.782s175.478-390.781 391.163-390.781c215.685 0 391.163 175.306 391.163 390.782s-175.477 390.781-391.163 390.781zM511.657 156.472c-194.147 0-352.114 157.813-352.114 351.771s157.966 351.77 352.114 351.77c194.147 0 352.114-157.812 352.114-351.77s-157.966-351.771-352.114-351.771zM743.999 527.749h-464.685c-10.8 0-19.525-8.717-19.525-19.506s8.726-19.506 19.525-19.506h464.685c10.8 0 19.525 8.717 19.525 19.506s-8.725 19.506-19.525 19.506z" />
<glyph unicode="&#xe929;" glyph-name="reset" d="M967.534 591.652h-206.032c-26.248 0-47.543 21.475-47.543 47.946s21.295 47.943 47.543 47.943h82.712c-74.6 106.31-197.331 175.795-336.288 175.795-227.576 0-412.062-186.035-412.062-415.516 0-229.483 184.488-415.516 412.062-415.516 227.572 0 412.066 186.032 412.066 415.516 0 26.47 21.295 47.943 47.543 47.943s47.543-21.473 47.543-47.943c0-282.419-227.078-511.402-507.15-511.402-280.104 0-507.153 228.983-507.153 511.402 0 282.447 227.049 511.402 507.153 511.402 169.965 0 320.127-84.5 412.066-213.973v86.121c0 26.468 21.295 47.943 47.543 47.943s47.543-21.475 47.543-47.943v-191.775c-0.001-26.469-21.296-47.944-47.544-47.944z" />
<glyph unicode="&#xe92a;" glyph-name="save" d="M843.849 959.186l-671.893 0.004c-96.094-8.646-171.956-89.364-171.956-188.499v-634.037c0-104.85 84.606-190.164 188.585-190.164h638.576c103.979 0 188.585 85.315 188.585 190.164v634.037c-0.001 99.105-75.815 179.82-171.898 188.495zM784.099 900.605v-418.278h-552.394v418.278h552.394zM955.996 136.654c0-71.605-57.824-129.914-128.835-129.914h-638.576c-71.041 0-128.835 58.308-128.835 129.914v634.037c0 65.92 49.075 119.919 112.206 128.248v-476.862h671.893v476.855c63.101-8.355 112.148-62.35 112.148-128.241v-634.037h-0.001zM599.018 776.431h61.876v-208.091h-61.876v208.091z" />
<glyph unicode="&#xe92b;" glyph-name="show_line__answersheet" d="M512 917.333c124.507 0.165 243.943-49.31 331.861-137.472 88.162-87.918 137.637-207.354 137.472-331.861 0.161-124.506-49.314-243.941-137.472-331.861-87.921-88.158-207.355-137.633-331.861-137.472-124.507-0.165-243.943 49.31-331.861 137.472-88.158 87.921-137.633 207.355-137.472 331.861-0.165 124.507 49.31 243.943 137.472 331.861 87.921 88.158 207.355 137.633 331.861 137.472v0zM512 960c-282.752 0-512-229.248-512-512s229.248-512 512-512c282.752 0 512 229.248 512 512s-229.248 512-512 512zM236.308 644.923h551.385v-78.769h-551.385v78.769zM236.308 487.385h551.385v-78.769h-551.385v78.769zM236.308 329.846h551.385v-78.769h-551.385v78.769z" />
<glyph unicode="&#xe92c;" glyph-name="title_number" horiz-adv-x="593" d="M215.579 933.053h-107.789v-673.684h-80.842l134.737-274.863 134.737 274.863h-80.842zM603.621 582.737v344.926h-48.505c-21.558-16.168-48.505-26.947-86.232-32.337v-37.726h70.063v-280.253h-86.232v-48.505h226.358v53.895h-75.453zM544.337 388.716c-64.674 0-118.568-48.505-118.568-129.347s48.505-123.958 113.179-123.958c26.947 0 64.674 21.558 86.232 48.505 0-113.179-43.116-150.905-91.621-150.905-21.558 0-48.505 10.779-64.674 32.337l-37.726-48.505c26.947-26.947 59.284-43.116 102.4-43.116 75.453 0 145.516 64.674 145.516 220.968 0 134.737-59.284 194.021-134.737 194.021zM549.726 183.916c-43.116 0-64.674 32.337-64.674 80.842s26.947 80.842 59.284 80.842c43.116 0 75.453-37.726 80.842-113.179-21.558-32.337-48.505-48.505-75.453-48.505z" />
<glyph unicode="&#xe92d;" glyph-name="transfer" d="M51.692 690.74c0 0 93.028 143.895 240.060 221.093 147.134 77.198 328.26 54.998 447.032-19.85 118.873-74.848 158.901-138.045 158.901-138.045l102.38 58.498c0 0 21.119 10.5 21.119-14.049v-367.337c0 0 0-32.75-24.74-21-20.717 9.799-245.591 138.045-316.393 178.494-38.82 17.399-4.727 31.549-4.727 31.549l98.86 56.648c0 0-56.419 70.798-138.886 108.297-88.199 46.098-170.868 51.598-272.042 13.25-66.073-25-143.814-89.047-199.73-183.544l-111.834 75.997zM969.491 205.306c0 0-93.027-143.846-240.059-221.092-147.033-77.198-328.261-54.95-447.033 19.899-118.873 74.847-158.9 138.045-158.9 138.045l-102.38-58.499c0 0-21.119-10.5-21.119 14v367.388c0 0 0 32.699 24.74 21 20.717-9.8 245.591-138.046 316.393-178.494 38.82-17.399 4.727-31.6 4.727-31.6l-98.86-56.598c0 0 56.419-70.797 138.886-108.297 88.2-46.098 170.868-51.598 272.042-13.249 66.073 25 143.814 88.997 199.73 183.545l111.833-76.048z" />
<glyph unicode="&#xe92e;" glyph-name="value" horiz-adv-x="1078" d="M231.111 851.101l90.292-219.136h-224.031l133.739 219.136zM967.020 631.966h-224.031l90.037 219.136 133.995-219.136zM725.46 583.155h237.371l-368.995-449.821 131.623 449.821zM470.556 133.333l-369.25 449.547h237.631l131.62-449.547zM358.822 659.323l-89.759 218.602h213.812l-124.053-218.602zM581.519 877.924h213.812l-90.010-218.602-123.802 218.602zM395.982 631.966l136.085 240.33 136.351-240.33h-272.436zM679.405 583.155l-147.338-512.86-147.079 512.86h294.418zM1057.289 630.35l-189.992 311.151c-7.050 11.265-18.549 17.969-30.866 17.969h-608.717c-12.321 0-23.819-6.705-30.62-17.969l-190.249-311.151c-8.916-14.48-8.381-33.787 1.282-47.737l494.625-630.074c7.057-9.897 17.789-15.814 29.315-15.814 11.53 0 22.516 5.917 29.57 15.814l494.374 630.078c9.918 13.946 10.453 33.253 1.278 47.733v0z" />
<glyph unicode="&#xe92f;" glyph-name="view" horiz-adv-x="1536" d="M765.134 264.671v0c105.478 0 190.985 82.992 190.985 185.368s-85.507 185.368-190.985 185.368c-105.478 0-190.985-82.992-190.985-185.368s85.507-185.368 190.985-185.368v0zM477.462 450.237c0 153.564 128.26 278.052 286.477 278.052s286.477-124.488 286.477-278.052c0-153.564-128.26-278.052-286.477-278.052s-286.477 124.488-286.477 278.052zM763.939 33.158v0c200.983 0 369.877 83.87 509.848 226.193 49.987 50.827 92.518 105.537 127.468 160.143 20.639 32.246 33.851 56.628 39.69 69.096v-76.706c-5.839 12.468-19.051 36.849-39.69 69.096-34.95 54.606-77.481 109.315-127.468 160.143-139.97 142.323-308.865 226.193-509.848 226.193s-369.877-83.87-509.848-226.193c-49.987-50.827-92.518-105.537-127.468-160.143-12.142-18.971-22.416-36.468-30.825-51.984-2.849-5.258-5.238-9.837-7.166-13.674-0.993-1.989-0.993-1.989-1.531-3.093-0.184-0.38-0.184-0.38-0.254-0.528-0.014-0.029-0.014-0.029 0 0.001 0.013 0.027 0.013 0.027 0.041 0.088 0.001 0.003 0.001 0.003 0.026 0.054l0.019 0.040v76.706c5.839-12.468 19.051-36.849 39.69-69.096 34.95-54.606 77.481-109.315 127.468-160.143 139.97-142.323 308.865-226.193 509.848-226.193v0zM763.939-59.526v0c-525.208 0-763.939 509.763-763.939 509.763s238.731 509.763 763.939 509.763c525.208 0 763.939-509.763 763.939-509.763s-238.731-509.763-763.939-509.763v0z" />
<glyph unicode="&#xe930;" glyph-name="knowledgepoint_mark" horiz-adv-x="683" d="M342.289 956.494c-187.152 0-338.981-151.788-338.981-338.889 0-130.104 73.745-247.817 190.251-304.814v-146.212c0-40.89 24.788-76.823 60.112-92.312v-31.597c0-35.314 28.507-64.432 64.45-64.432h49.577c35.323 0 64.45 28.499 64.45 64.432v31.597c35.323 15.489 60.112 51.422 60.112 92.312v146.212c115.886 56.998 190.251 174.711 190.251 304.814-1.239 187.102-153.688 338.889-340.22 338.889v0zM383.189 43.29c0-8.674-7.437-16.728-16.732-16.728h-49.577c-8.676 0-16.732 7.434-16.732 16.728v22.303h82.421v-22.303h0.62zM443.301 167.198c-0.62-29.738-24.788-53.281-53.915-53.281h-94.196c-29.126 0-53.295 24.162-53.295 53.281v57.617h202.025v-57.617h-0.62zM290.853 556.27h102.252l-50.816-93.551-51.436 93.551zM456.935 351.202l-14.253-6.195v-72.486h-76.844v141.255c4.338 2.478 6.817 6.815 9.296 11.152l70.027 128.865c6.197 10.532 5.577 23.543-0.62 33.455-6.817 11.152-19.211 17.967-32.845 17.967h-140.054c-13.634 0-26.028-6.815-32.845-17.967-6.197-10.532-6.817-22.303-0.62-33.455l70.647-129.484c2.479-4.337 5.577-8.054 9.296-11.152v-140.016h-76.844v72.486l-14.253 6.195c-106.59 45.846-175.378 151.168-175.378 267.022 0 159.842 130.759 290.565 290.643 290.565s290.643-130.723 290.643-290.565c0-116.474-68.788-221.176-175.997-267.642z" />
</font>
</defs>
</svg>
